<svg width="99" height="41" viewBox="0 0 99 41" fill="none" xmlns="http://www.w3.org/2000/svg">
<path d="M0.248908 40.001L4.89518 28.2857H7.25151L11.848 40.001H9.09342L5.57553 30.277H6.52138L2.9537 40.001H0.248908ZM2.88733 37.877V35.753H9.27595V37.877H2.88733ZM17.6868 40.1835C16.7244 40.1835 15.8726 39.9789 15.1314 39.5695C14.4012 39.1602 13.826 38.596 13.4056 37.877C12.9963 37.1468 12.7916 36.3171 12.7916 35.3879V28.2857H15.4135V35.5372C15.4135 36.0019 15.513 36.4056 15.7122 36.7486C15.9113 37.0915 16.1823 37.357 16.5253 37.5451C16.8793 37.7221 17.2664 37.8106 17.6868 37.8106C18.1293 37.8106 18.5165 37.7221 18.8484 37.5451C19.1803 37.357 19.4402 37.0971 19.6283 36.7652C19.8274 36.4222 19.927 36.0185 19.927 35.5538V28.2857H22.5488V35.4045C22.5488 36.3337 22.3442 37.1579 21.9348 37.877C21.5255 38.596 20.9558 39.1602 20.2257 39.5695C19.4956 39.9789 18.6493 40.1835 17.6868 40.1835ZM27.4314 40.001V28.4517H30.0367V40.001H27.4314ZM23.7642 30.5591V28.2857H33.7039V30.5591H23.7642ZM40.135 40.2001C39.25 40.2001 38.4314 40.0452 37.6792 39.7355C36.938 39.4257 36.2853 38.9943 35.7211 38.4412C35.1569 37.888 34.7199 37.2464 34.4102 36.5163C34.1004 35.7751 33.9455 34.9786 33.9455 34.1268C33.9455 33.2639 34.1004 32.4674 34.4102 31.7372C34.7199 31.0071 35.1514 30.371 35.7045 29.829C36.2576 29.2758 36.9048 28.8499 37.646 28.5512C38.3982 28.2415 39.2168 28.0866 40.1019 28.0866C40.9758 28.0866 41.7834 28.2415 42.5246 28.5512C43.2768 28.8499 43.9295 29.2758 44.4826 29.829C45.0468 30.371 45.4838 31.0126 45.7935 31.7538C46.1033 32.484 46.2582 33.2805 46.2582 34.1434C46.2582 34.9952 46.1033 35.7917 45.7935 36.5329C45.4838 37.263 45.0523 37.9046 44.4992 38.4577C43.9461 38.9998 43.2934 39.4257 42.5411 39.7355C41.8 40.0452 40.9979 40.2001 40.135 40.2001ZM40.1019 37.8272C40.7988 37.8272 41.4072 37.6723 41.9272 37.3626C42.4582 37.0528 42.8675 36.6214 43.1551 36.0682C43.4427 35.504 43.5866 34.8569 43.5866 34.1268C43.5866 33.5736 43.5036 33.0758 43.3376 32.6333C43.1717 32.1797 42.9339 31.7926 42.6241 31.4717C42.3144 31.1399 41.9438 30.891 41.5123 30.725C41.0919 30.548 40.6218 30.4595 40.1019 30.4595C39.4049 30.4595 38.7909 30.6144 38.2599 30.9241C37.74 31.2228 37.3362 31.6487 37.0486 32.2019C36.761 32.7439 36.6171 33.3856 36.6171 34.1268C36.6171 34.6799 36.7001 35.1832 36.8661 35.6368C37.032 36.0904 37.2643 36.4831 37.563 36.815C37.8727 37.1358 38.2433 37.3847 38.6748 37.5617C39.1062 37.7387 39.5819 37.8272 40.1019 37.8272Z" fill="#FF3600"/>
<path d="M51.0765 40.001L46.5629 28.2857H49.3507L52.7856 37.7608H51.6407L55.1254 28.2857H57.8799L53.3166 40.001H51.0765ZM56.8851 40.001L61.5314 28.2857H63.8877L68.4842 40.001H65.7296L62.2117 30.277H63.1576L59.5899 40.001H56.8851ZM59.5235 37.877V35.753H65.9121V37.877H59.5235ZM74.323 40.1835C73.3606 40.1835 72.5087 39.9789 71.7676 39.5695C71.0374 39.1602 70.4622 38.596 70.0418 37.877C69.6325 37.1468 69.4278 36.3171 69.4278 35.3879V28.2857H72.0496V35.5372C72.0496 36.0019 72.1492 36.4056 72.3483 36.7486C72.5475 37.0915 72.8185 37.357 73.1614 37.5451C73.5154 37.7221 73.9026 37.8106 74.323 37.8106C74.7655 37.8106 75.1527 37.7221 75.4846 37.5451C75.8164 37.357 76.0764 37.0971 76.2645 36.7652C76.4636 36.4222 76.5632 36.0185 76.5632 35.5538V28.2857H79.185V35.4045C79.185 36.3337 78.9803 37.1579 78.571 37.877C78.1617 38.596 77.592 39.1602 76.8619 39.5695C76.1317 39.9789 75.2854 40.1835 74.323 40.1835ZM81.2617 40.001V28.2857H83.8669V40.001H81.2617ZM83.2695 40.001V37.711H89.0608V40.001H83.2695ZM92.2187 40.001V28.4517H94.8239V40.001H92.2187ZM88.5514 30.5591V28.2857H98.4911V30.5591H88.5514Z" fill="white"/>
<path d="M96.0089 9.38528C97.8014 8.46526 89.7912 9.80809 79.5714 4.72766C69.3486 -0.359543 63.022 0.0057611 53.8571 0.0057611C44.6923 0.0057611 39.1758 4.09176 34.2276 7.17655C29.2795 10.2613 34.146 9.26352 18.573 11.2625C3 13.2548 3 19.7897 3 19.7897C3 19.7897 7.04741 13.9584 24.0018 13.9584C40.9562 13.9584 86.0883 14.4792 96.0089 9.38528ZM34.545 10.0956C36.2347 8.52614 43.0147 2.5798 49.1931 2.0014C56.3176 1.33506 65.7817 1.03402 71.3496 3.63513C76.9174 6.23623 77.7064 9.30749 77.7064 9.30749L34.669 10.4575C34.4936 10.4643 34.409 10.2207 34.545 10.0956Z" fill="#FF3600"/>
<path d="M27.2093 15.426C11.3128 13.8768 4.38477 19.7893 4.38477 19.7893C4.38477 19.7893 13.7219 14.8374 27.4995 17.628C41.277 20.4185 58.8117 19.6777 67.7529 18.7306C85.0338 16.894 96.5564 10.4707 96.5564 10.4707C61.1906 19.0993 43.1057 16.9785 27.2093 15.426Z" fill="#FF3600"/>
<path d="M36.6007 9.89572H39.5333C39.896 9.89572 40.2346 9.61831 40.2921 9.21573C40.3677 8.7049 40.017 8.26172 39.5726 8.26172H37.8221C37.4593 8.26172 37.1116 8.43087 36.8607 8.72519L36.374 9.30369C36.1865 9.53035 36.3256 9.89572 36.6007 9.89572Z" fill="#FF3600"/>
<path d="M95.0987 12.1621C85.8008 17.3034 76.5029 18.1998 76.5029 18.1998C91.4533 18.1186 95.0987 12.1621 95.0987 12.1621Z" fill="#FF3600"/>
</svg>
